<mxfile host="app.diagrams.net" modified="2020-07-29T13:27:24.634Z" agent="5.0 (X11; Linux x86_64) AppleWebKit/537.36 (KHTML, like Gecko) Chrome/84.0.4147.89 Safari/537.36" etag="aba9FjFkHk9nM26dDU-G" version="13.5.4" type="github">
  <diagram id="QwuzQSNleuKqz_otW_EM" name="Page-1">
    <mxGraphModel dx="1447" dy="823" grid="1" gridSize="10" guides="1" tooltips="1" connect="1" arrows="1" fold="1" page="1" pageScale="1" pageWidth="1169" pageHeight="827" math="0" shadow="0">
      <root>
        <mxCell id="0" />
        <mxCell id="1" parent="0" />
        <mxCell id="S7c1MTp83PEbXr3qvN8_-73" value="Jakarta (asia-southeast2)" style="rounded=0;whiteSpace=wrap;html=1;verticalAlign=top;fontSize=20;strokeColor=#6c8ebf;fillColor=#dae8fc;" vertex="1" parent="1">
          <mxGeometry x="497.5" y="80" width="616.67" height="135" as="geometry" />
        </mxCell>
        <mxCell id="S7c1MTp83PEbXr3qvN8_-72" value="Iowa (us-central1)" style="rounded=0;whiteSpace=wrap;html=1;verticalAlign=top;fontSize=20;strokeColor=#6c8ebf;fillColor=#dae8fc;" vertex="1" parent="1">
          <mxGeometry x="501.66" y="320" width="616.67" height="135" as="geometry" />
        </mxCell>
        <mxCell id="S7c1MTp83PEbXr3qvN8_-48" style="edgeStyle=orthogonalEdgeStyle;orthogonalLoop=1;jettySize=auto;html=1;rounded=0;endArrow=oval;endFill=1;" edge="1" parent="1" source="S7c1MTp83PEbXr3qvN8_-39">
          <mxGeometry relative="1" as="geometry">
            <mxPoint x="480" y="275" as="targetPoint" />
          </mxGeometry>
        </mxCell>
        <mxCell id="S7c1MTp83PEbXr3qvN8_-39" value="" style="strokeColor=#dddddd;shadow=1;strokeWidth=1;rounded=1;absoluteArcSize=1;arcSize=2;" vertex="1" parent="1">
          <mxGeometry x="280" y="240" width="151.67" height="70" as="geometry" />
        </mxCell>
        <mxCell id="S7c1MTp83PEbXr3qvN8_-40" value="&lt;font color=&quot;#000000&quot;&gt;Load Balancer&lt;/font&gt;&lt;br&gt;App Engine" style="dashed=0;connectable=0;html=1;fillColor=#5184F3;strokeColor=none;shape=mxgraph.gcp2.hexIcon;prIcon=app_engine;part=1;labelPosition=right;verticalLabelPosition=middle;align=left;verticalAlign=middle;spacingLeft=5;fontColor=#999999;fontSize=12;" vertex="1" parent="S7c1MTp83PEbXr3qvN8_-39">
          <mxGeometry y="0.5" width="44" height="39" relative="1" as="geometry">
            <mxPoint x="5" y="-19.5" as="offset" />
          </mxGeometry>
        </mxCell>
        <mxCell id="S7c1MTp83PEbXr3qvN8_-49" style="edgeStyle=orthogonalEdgeStyle;rounded=0;orthogonalLoop=1;jettySize=auto;html=1;endArrow=none;endFill=0;startArrow=block;startFill=1;" edge="1" parent="1" source="S7c1MTp83PEbXr3qvN8_-41">
          <mxGeometry relative="1" as="geometry">
            <mxPoint x="480" y="280" as="targetPoint" />
          </mxGeometry>
        </mxCell>
        <mxCell id="S7c1MTp83PEbXr3qvN8_-50" style="edgeStyle=orthogonalEdgeStyle;rounded=0;orthogonalLoop=1;jettySize=auto;html=1;endArrow=none;endFill=0;startArrow=block;startFill=1;" edge="1" parent="1" source="S7c1MTp83PEbXr3qvN8_-43">
          <mxGeometry relative="1" as="geometry">
            <mxPoint x="480" y="280" as="targetPoint" />
          </mxGeometry>
        </mxCell>
        <mxCell id="S7c1MTp83PEbXr3qvN8_-69" style="edgeStyle=orthogonalEdgeStyle;rounded=0;orthogonalLoop=1;jettySize=auto;html=1;startArrow=none;startFill=0;endArrow=block;endFill=1;" edge="1" parent="1" source="S7c1MTp83PEbXr3qvN8_-66" target="S7c1MTp83PEbXr3qvN8_-39">
          <mxGeometry relative="1" as="geometry" />
        </mxCell>
        <mxCell id="S7c1MTp83PEbXr3qvN8_-66" value="" style="whiteSpace=wrap;html=1;aspect=fixed;fillColor=#f5f5f5;fontColor=#333333;strokeColor=#666666;" vertex="1" parent="1">
          <mxGeometry y="182.5" width="185" height="185" as="geometry" />
        </mxCell>
        <mxCell id="S7c1MTp83PEbXr3qvN8_-67" value="" style="image;html=1;image=img/lib/clip_art/computers/MacBook_128x128.png" vertex="1" parent="1">
          <mxGeometry x="30" y="187.5" width="100" height="90" as="geometry" />
        </mxCell>
        <mxCell id="S7c1MTp83PEbXr3qvN8_-68" value="" style="image;html=1;image=img/lib/clip_art/telecommunication/iPhone_128x128.png" vertex="1" parent="1">
          <mxGeometry x="50" y="287.5" width="60" height="70" as="geometry" />
        </mxCell>
        <mxCell id="S7c1MTp83PEbXr3qvN8_-53" style="edgeStyle=orthogonalEdgeStyle;rounded=0;orthogonalLoop=1;jettySize=auto;html=1;entryX=0;entryY=0.5;entryDx=0;entryDy=0;endArrow=block;endFill=1;" edge="1" parent="1" source="S7c1MTp83PEbXr3qvN8_-41" target="S7c1MTp83PEbXr3qvN8_-51">
          <mxGeometry relative="1" as="geometry" />
        </mxCell>
        <mxCell id="S7c1MTp83PEbXr3qvN8_-41" value="" style="strokeColor=#dddddd;shadow=1;strokeWidth=1;rounded=1;absoluteArcSize=1;arcSize=2;" vertex="1" parent="1">
          <mxGeometry x="510" y="120" width="151.67" height="70" as="geometry" />
        </mxCell>
        <mxCell id="S7c1MTp83PEbXr3qvN8_-42" value="&lt;font color=&quot;#000000&quot;&gt;Front End&lt;/font&gt;&lt;br&gt;App Engine" style="dashed=0;connectable=0;html=1;fillColor=#5184F3;strokeColor=none;shape=mxgraph.gcp2.hexIcon;prIcon=app_engine;part=1;labelPosition=right;verticalLabelPosition=middle;align=left;verticalAlign=middle;spacingLeft=5;fontColor=#999999;fontSize=12;" vertex="1" parent="S7c1MTp83PEbXr3qvN8_-41">
          <mxGeometry y="0.5" width="44" height="39" relative="1" as="geometry">
            <mxPoint x="5" y="-19.5" as="offset" />
          </mxGeometry>
        </mxCell>
        <mxCell id="S7c1MTp83PEbXr3qvN8_-58" style="edgeStyle=orthogonalEdgeStyle;rounded=0;orthogonalLoop=1;jettySize=auto;html=1;entryX=0;entryY=0.5;entryDx=0;entryDy=0;startArrow=none;startFill=0;endArrow=block;endFill=1;" edge="1" parent="1" source="S7c1MTp83PEbXr3qvN8_-51" target="S7c1MTp83PEbXr3qvN8_-56">
          <mxGeometry relative="1" as="geometry" />
        </mxCell>
        <mxCell id="S7c1MTp83PEbXr3qvN8_-51" value="" style="strokeColor=#dddddd;shadow=1;strokeWidth=1;rounded=1;absoluteArcSize=1;arcSize=2;" vertex="1" parent="1">
          <mxGeometry x="730" y="120" width="151.67" height="70" as="geometry" />
        </mxCell>
        <mxCell id="S7c1MTp83PEbXr3qvN8_-52" value="&lt;font color=&quot;#000000&quot;&gt;Back End&lt;/font&gt;&lt;br&gt;App Engine" style="dashed=0;connectable=0;html=1;fillColor=#5184F3;strokeColor=none;shape=mxgraph.gcp2.hexIcon;prIcon=app_engine;part=1;labelPosition=right;verticalLabelPosition=middle;align=left;verticalAlign=middle;spacingLeft=5;fontColor=#999999;fontSize=12;" vertex="1" parent="S7c1MTp83PEbXr3qvN8_-51">
          <mxGeometry y="0.5" width="44" height="39" relative="1" as="geometry">
            <mxPoint x="5" y="-19.5" as="offset" />
          </mxGeometry>
        </mxCell>
        <mxCell id="S7c1MTp83PEbXr3qvN8_-56" value="" style="strokeColor=#dddddd;shadow=1;strokeWidth=1;rounded=1;absoluteArcSize=1;arcSize=2;" vertex="1" parent="1">
          <mxGeometry x="960" y="125" width="120" height="60" as="geometry" />
        </mxCell>
        <mxCell id="S7c1MTp83PEbXr3qvN8_-57" value="&lt;font color=&quot;#000000&quot;&gt;Database&lt;/font&gt;&lt;br&gt;Cloud SQL" style="dashed=0;connectable=0;html=1;fillColor=#5184F3;strokeColor=none;shape=mxgraph.gcp2.hexIcon;prIcon=cloud_sql;part=1;labelPosition=right;verticalLabelPosition=middle;align=left;verticalAlign=middle;spacingLeft=5;fontColor=#999999;fontSize=12;" vertex="1" parent="S7c1MTp83PEbXr3qvN8_-56">
          <mxGeometry y="0.5" width="44" height="39" relative="1" as="geometry">
            <mxPoint x="5" y="-19.5" as="offset" />
          </mxGeometry>
        </mxCell>
        <mxCell id="S7c1MTp83PEbXr3qvN8_-65" style="edgeStyle=orthogonalEdgeStyle;rounded=0;orthogonalLoop=1;jettySize=auto;html=1;entryX=0;entryY=0.5;entryDx=0;entryDy=0;startArrow=none;startFill=0;endArrow=block;endFill=1;" edge="1" parent="1" source="S7c1MTp83PEbXr3qvN8_-43" target="S7c1MTp83PEbXr3qvN8_-61">
          <mxGeometry relative="1" as="geometry" />
        </mxCell>
        <mxCell id="S7c1MTp83PEbXr3qvN8_-43" value="" style="strokeColor=#dddddd;shadow=1;strokeWidth=1;rounded=1;absoluteArcSize=1;arcSize=2;" vertex="1" parent="1">
          <mxGeometry x="510" y="360" width="151.67" height="70" as="geometry" />
        </mxCell>
        <mxCell id="S7c1MTp83PEbXr3qvN8_-44" value="&lt;font color=&quot;#000000&quot;&gt;Front End&lt;/font&gt;&lt;br&gt;App Engine" style="dashed=0;connectable=0;html=1;fillColor=#5184F3;strokeColor=none;shape=mxgraph.gcp2.hexIcon;prIcon=app_engine;part=1;labelPosition=right;verticalLabelPosition=middle;align=left;verticalAlign=middle;spacingLeft=5;fontColor=#999999;fontSize=12;" vertex="1" parent="S7c1MTp83PEbXr3qvN8_-43">
          <mxGeometry y="0.5" width="44" height="39" relative="1" as="geometry">
            <mxPoint x="5" y="-19.5" as="offset" />
          </mxGeometry>
        </mxCell>
        <mxCell id="S7c1MTp83PEbXr3qvN8_-60" style="edgeStyle=orthogonalEdgeStyle;rounded=0;orthogonalLoop=1;jettySize=auto;html=1;entryX=0;entryY=0.5;entryDx=0;entryDy=0;startArrow=none;startFill=0;endArrow=block;endFill=1;" edge="1" source="S7c1MTp83PEbXr3qvN8_-61" target="S7c1MTp83PEbXr3qvN8_-63" parent="1">
          <mxGeometry relative="1" as="geometry" />
        </mxCell>
        <mxCell id="S7c1MTp83PEbXr3qvN8_-61" value="" style="strokeColor=#dddddd;shadow=1;strokeWidth=1;rounded=1;absoluteArcSize=1;arcSize=2;" vertex="1" parent="1">
          <mxGeometry x="730" y="360" width="151.67" height="70" as="geometry" />
        </mxCell>
        <mxCell id="S7c1MTp83PEbXr3qvN8_-62" value="&lt;font color=&quot;#000000&quot;&gt;Back End&lt;/font&gt;&lt;br&gt;App Engine" style="dashed=0;connectable=0;html=1;fillColor=#5184F3;strokeColor=none;shape=mxgraph.gcp2.hexIcon;prIcon=app_engine;part=1;labelPosition=right;verticalLabelPosition=middle;align=left;verticalAlign=middle;spacingLeft=5;fontColor=#999999;fontSize=12;" vertex="1" parent="S7c1MTp83PEbXr3qvN8_-61">
          <mxGeometry y="0.5" width="44" height="39" relative="1" as="geometry">
            <mxPoint x="5" y="-19.5" as="offset" />
          </mxGeometry>
        </mxCell>
        <mxCell id="S7c1MTp83PEbXr3qvN8_-63" value="" style="strokeColor=#dddddd;shadow=1;strokeWidth=1;rounded=1;absoluteArcSize=1;arcSize=2;" vertex="1" parent="1">
          <mxGeometry x="960" y="365" width="120" height="60" as="geometry" />
        </mxCell>
        <mxCell id="S7c1MTp83PEbXr3qvN8_-64" value="&lt;font color=&quot;#000000&quot;&gt;Database&lt;/font&gt;&lt;br&gt;Cloud SQL" style="dashed=0;connectable=0;html=1;fillColor=#5184F3;strokeColor=none;shape=mxgraph.gcp2.hexIcon;prIcon=cloud_sql;part=1;labelPosition=right;verticalLabelPosition=middle;align=left;verticalAlign=middle;spacingLeft=5;fontColor=#999999;fontSize=12;" vertex="1" parent="S7c1MTp83PEbXr3qvN8_-63">
          <mxGeometry y="0.5" width="44" height="39" relative="1" as="geometry">
            <mxPoint x="5" y="-19.5" as="offset" />
          </mxGeometry>
        </mxCell>
      </root>
    </mxGraphModel>
  </diagram>
</mxfile>
